<svg xmlns="http://www.w3.org/2000/svg" version="1.1" xmlns:xlink="http://www.w3.org/1999/xlink" width="512" height="512" x="0" y="0" viewBox="0 0 512.009 512.009" style="enable-background:new 0 0 512 512" xml:space="preserve" class=""><g><path d="M272 317.006c0-8.291 6.709-15 15-15h105v-257c0-8.291-6.709-15-15-15H257c0 33.091-26.909 60-60 60s-60-26.909-60-60H15c-8.291 0-15 6.709-15 15v362c0 8.291 6.709 15 15 15h257zm-197-195h242c8.291 0 15 6.709 15 15s-6.709 15-15 15H75c-8.291 0-15-6.709-15-15s6.709-15 15-15zm0 60h242c8.291 0 15 6.709 15 15s-6.709 15-15 15H75c-8.291 0-15-6.709-15-15s6.709-15 15-15zm-15 75c0-8.291 6.709-15 15-15h242c8.291 0 15 6.709 15 15s-6.709 15-15 15H75c-8.291 0-15-6.709-15-15z" fill="#ffffff" opacity="1" data-original="#000000" class=""></path><path d="M383.211 332.006H302v81.211z" fill="#ffffff" opacity="1" data-original="#000000" class=""></path><path d="M449.378 77.417a15.052 15.052 0 0 0-6.182-9.697 14.954 14.954 0 0 0-11.206-2.476L422 67.012v249.994c0 12.012-4.688 23.32-13.184 31.816l-90 90c-8.496 8.496-19.805 13.184-31.816 13.184H119.224l8.416 47.607c1.384 7.906 8.879 13.586 17.358 12.173l354.595-62.402c8.159-1.45 13.623-9.214 12.188-17.373z" fill="#ffffff" opacity="1" data-original="#000000" class=""></path><circle cx="197" cy="30.006" r="30" fill="#ffffff" opacity="1" data-original="#000000" class=""></circle></g></svg>