<svg id="Capa_1" enable-background="new 0 0 512.009 512.009" height="512" viewBox="0 0 512.009 512.009" width="512" xmlns="http://www.w3.org/2000/svg"><g><g><path d="m272 317.006c0-8.291 6.709-15 15-15h105v-257c0-8.291-6.709-15-15-15h-120c0 33.091-26.909 60-60 60s-60-26.909-60-60h-122c-8.291 0-15 6.709-15 15v362c0 8.291 6.709 15 15 15h257zm-197-195h242c8.291 0 15 6.709 15 15s-6.709 15-15 15h-242c-8.291 0-15-6.709-15-15s6.709-15 15-15zm0 60h242c8.291 0 15 6.709 15 15s-6.709 15-15 15h-242c-8.291 0-15-6.709-15-15s6.709-15 15-15zm-15 75c0-8.291 6.709-15 15-15h242c8.291 0 15 6.709 15 15s-6.709 15-15 15h-242c-8.291 0-15-6.709-15-15z"></path><path d="m383.211 332.006h-81.211v81.211z"></path></g><path d="m449.378 77.417c-.703-3.926-2.915-7.412-6.182-9.697-3.237-2.271-7.28-3.179-11.206-2.476l-9.99 1.768v249.994c0 12.012-4.688 23.32-13.184 31.816l-90 90c-8.496 8.496-19.805 13.184-31.816 13.184h-167.776l8.416 47.607c1.384 7.906 8.879 13.586 17.358 12.173l354.595-62.402c8.159-1.45 13.623-9.214 12.188-17.373z"></path><circle cx="197" cy="30.006" r="30"></circle></g></svg>